
<svg version="1.1" id="Capa_1" xmlns="http://www.w3.org/2000/svg" xmlns:xlink="http://www.w3.org/1999/xlink" x="0px" y="0px"
	 viewBox="0 0 512 512" style="enable-background:new 0 0 512 512;" xml:space="preserve">
<path style="fill:#3D9AE2;" d="M383.652,119.402v359.519c0,14.096-11.426,25.522-25.522,25.522H62.007
	c-14.096,0-25.522-11.426-25.522-25.522V119.402c0-14.096,11.426-25.522,25.522-25.522H358.13
	C372.225,93.881,383.652,105.307,383.652,119.402z"/>
<path style="fill:#5AAAE7;" d="M383.652,119.402v351.791H90.219c-14.096,0-25.522-11.426-25.522-25.522V93.881H358.13
	C372.225,93.881,383.652,105.307,383.652,119.402z"/>
<path style="fill:#96C8EF;" d="M457.374,401.571l-283.367,85.945c-13.491,4.091-27.738-3.526-31.829-17.008L37.824,126.455
	c-4.101-13.481,3.516-27.738,17.008-31.829l5.511-1.673L338.2,8.671c13.491-4.091,27.738,3.526,31.829,17.018l101.996,336.244
	l2.368,7.809C478.484,383.223,470.867,397.48,457.374,401.571z"/>
<path style="fill:#C2DFF6;" d="M472.024,361.933l-277.866,84.273c-13.491,4.091-27.738-3.526-31.829-17.008L60.345,92.954
	L338.201,8.671c13.491-4.091,27.738,3.526,31.829,17.018L472.024,361.933z"/>
<path d="M384.376,474.589c-4.141-0.514-7.909,2.428-8.423,6.569c-1.108,8.967-8.766,15.728-17.824,15.728H62.006
	c-9.904,0-17.965-8.05-17.965-17.965V172.995L85.14,308.492c0.987,3.264,3.99,5.37,7.224,5.37c0.725,0,1.471-0.111,2.196-0.332
	c4-1.209,6.257-5.431,5.038-9.421L61.895,179.796c5.139,12.786,17.673,21.844,32.292,21.844c19.184,0,34.801-15.617,34.801-34.801
	c0-13.425,0-76.422,0-86.802c50.353-15.282,110.824-33.615,166.853-50.61c3.99-1.219,6.247-5.431,5.038-9.431
	c-1.219-3.99-5.441-6.247-9.431-5.038l-139.8,42.408c-8.071-15.819-24.524-26.67-43.476-26.67
	c-26.902,0-48.786,21.884-48.786,48.786v5.874l-6.751,2.045C38.59,91.654,29.159,104.37,29.159,119.04l-0.232,8.947v350.935
	c0,18.247,14.841,33.078,33.078,33.078h296.123c16.675,0,30.781-12.464,32.826-28.988
	C391.471,478.871,388.518,475.093,384.376,474.589z M74.501,79.483c0-18.569,15.103-33.673,33.673-33.673
	c12.111,0,22.751,6.428,28.675,16.051l-13.038,3.95c-11.983-13.783-34.747-6.934-37.008,11.224
	c-0.266,2.084-0.173,74.826-0.171,77.613c0,4.171,3.385,7.557,7.557,7.557c4.171,0,7.557-3.385,7.557-7.557
	c0-5.565,0-71.669,0-74.973c0-3.345,2.72-6.066,6.066-6.066c3.345,0,6.066,2.72,6.066,6.066c0,10.357,0,75.641,0,87.164
	c0,10.851-8.836,19.688-19.688,19.688s-19.688-8.836-19.688-19.688C74.501,148.187,74.501,98.359,74.501,79.483z M49.533,106.395
	c0.01-0.02,0.02-0.03,0.03-0.02c0.689-0.472,4.008-3.921,9.824-4.746c0.245,67.909-0.553,66.116,0.725,72.293L45.05,124.269
	C43.057,117.627,45.039,110.917,49.533,106.395z"/>
<path d="M377.263,23.492C371.804,5.5,353.058-3.776,336.013,1.447l-15.637,4.736c-3.99,1.219-6.247,5.431-5.038,9.431
	c1.209,3.99,5.431,6.247,9.421,5.038c14.819-4.283,16.446-5.521,20.867-5.521c7.829,0,14.902,5.239,17.179,12.756l21.713,71.598
	l6.69,22.046l75.95,250.4c2.968,9.704-2.782,19.621-11.97,22.408c-302.701,91.816-284.543,86.731-288.597,86.731
	c-7.839,0-14.902-5.239-17.179-12.756l-41.038-135.286c-1.209-3.99-5.431-6.247-9.421-5.038c-4,1.219-6.247,5.441-5.038,9.431
	l41.028,135.286c4.262,14.045,16.977,23.476,31.648,23.476c3.244,0,6.479-0.484,9.612-1.431l199.891-60.635v17.753
	c0,4.171,3.375,7.557,7.557,7.557c4.171,0,7.557-3.385,7.557-7.557v-22.338l68.363-20.736c14.045-4.262,23.486-16.977,23.486-31.638
	C483.057,367.962,486.784,386.258,377.263,23.492z"/>
<path d="M189.624,160.132c5.437,17.924,19.723,18.853,31.202,19.599c11.45,0.744,17.069,1.484,19.689,10.121
	c2.253,7.428-0.561,12.06-8.855,14.575c-13.364,4.053-15.371-5.807-22.659-3.596c-4.798,1.455-6.999,7.597-5.691,11.91
	c2.146,7.076,13.08,11.55,25.056,10.556l0.914,3.012c1.516,4.999,6.816,7.832,11.816,6.315c4.999-1.516,7.832-6.816,6.315-11.816
	l-0.974-3.212c11.785-7.075,16.011-19.26,11.596-33.816c-6.388-21.061-23.284-22.067-33.378-22.666
	c-9.115-0.668-15.45-0.249-17.513-7.053c-1.981-6.531,2.619-9.908,9.164-11.894c9.573-2.904,12.902,0.88,17.502-0.516
	c5.41-1.641,6.73-8.063,5.573-11.874c-2.461-8.114-14.834-7.278-21.462-6.199l-0.921-3.038c-1.516-4.999-6.816-7.832-11.815-6.316
	c-4.999,1.516-7.832,6.816-6.315,11.816l1.266,4.172C189.581,137.153,185.85,147.69,189.624,160.132z"/>
<path d="M364.718,218.403l-215.418,65.343c-3.993,1.212-6.249,5.432-5.038,9.425c1.206,3.975,5.411,6.254,9.425,5.038
	l215.418-65.343c3.993-1.212,6.249-5.432,5.038-9.425C372.931,219.447,368.709,217.193,364.718,218.403z"/>
<path d="M377.294,259.867l-1.199,0.363l-214.218,64.978c-3.99,1.219-6.247,5.431-5.038,9.431c1.216,4.007,5.458,6.236,9.431,5.038
	c0.118-0.035,214.982-65.209,215.417-65.341c3.99-1.219,6.247-5.441,5.038-9.431C385.505,260.915,381.283,258.658,377.294,259.867z"
	/>
<path d="M389.879,301.328l-13.783,4.181l-201.644,61.169c-8.28,2.509-6.448,14.791,2.196,14.791c0.725,0,1.461-0.111,2.196-0.332
	c47.953-14.545,164.508-49.899,215.417-65.341c3.99-1.209,6.247-5.431,5.038-9.431C398.109,302.454,393.976,300.117,389.879,301.328
	z"/>
<path d="M189.222,422.931c1.702,0-10.959,3.701,217.614-65.673c4-1.209,6.257-5.431,5.038-9.421
	c-1.209-3.99-5.431-6.247-9.421-5.038l-11.244,3.416c-190.462,57.767-203.516,61.725-204.153,61.919
	c-0.002,0-0.003,0.001-0.005,0.001c0.001,0,0.002-0.001,0.003-0.001c-0.007,0.002-0.013,0.004-0.017,0.005
	c0.001,0,0.002-0.001,0.003-0.001c-0.002,0-0.003,0.001-0.004,0.001C178.738,410.648,180.593,422.931,189.222,422.931z"/>
<path d="M187.076,408.128c-0.003,0.001-0.012,0.004-0.022,0.007h0.002C187.068,408.13,187.075,408.128,187.076,408.128z"/>
<g>
</g>
<g>
</g>
<g>
</g>
<g>
</g>
<g>
</g>
<g>
</g>
<g>
</g>
<g>
</g>
<g>
</g>
<g>
</g>
<g>
</g>
<g>
</g>
<g>
</g>
<g>
</g>
<g>
</g>
</svg>
